<?xml version="1.0" encoding="UTF-8"?>
<svg xmlns="http://www.w3.org/2000/svg" version="1.1" width="141.64313" height="43.348244">
  <g>
    <path
       d="m 13.36,5.76 0.04,9.4 C 12.440001,15.88 11.239998,16.24 9.76,16.24 8.480001,16.28 7.399999,15.759999 6.56,14.72 5.680001,13.680001 5.24,12.439999 5.24,11 5.24,9.200002 5.680001,7.719999 6.6,6.52 7.439999,5.400001 8.640001,4.84 10.28,4.84 c 0.639999,0 1.28,0.08 1.88,0.2 0.399999,0.12 0.8,0.360001 1.2,0.72 m 5.08,13.68 0,-15.52 -0.16,-0.16 C 17.520001,2.880001 16.759999,2.2 16.04,1.72 15.320001,1.240001 14.599999,0.84 13.88,0.6 13.160001,0.4 12.519999,0.24 11.96,0.16 11.36,0.12 10.799999,0.12 10.24,0.08 7.240003,0.08 4.799998,1.080002 2.88,3 0.960002,4.959998 0,7.480003 0,10.52 c 0,3.279997 0.920002,5.800002 2.76,7.52 1.839998,1.759999 4.080002,2.6 6.68,2.6 0.999999,0 1.960001,-0.12 2.92,-0.44 0.359999,-0.08 0.68,-0.2 1,-0.32 -0.08,0.72 -0.16,1.320001 -0.28,1.72 -0.2,0.64 -0.480001,1.160001 -0.84,1.52 -0.56,0.56 -1.280001,0.92 -2.16,1.08 C 9.200001,24.4 8.319999,24.48 7.44,24.44 6.520001,24.4 5.679999,24.28 4.88,24.08 4.040001,23.92 3.439999,23.68 3.04,23.44 l -2.16,3.88 c 1.439998,0.879999 2.800001,1.32 4.08,1.36 1.039999,0.08 2.160001,0.12 3.28,0.12 3.199997,0 5.720002,-0.760001 7.52,-2.32 1.759998,-1.479998 2.64,-3.840003 2.68,-7.04"
       style="fill:#0088cc;fill-opacity:1;stroke:none" />
    <path
       d="m 32.661667,0.005632 c -1.50589,0.01292 -2.81734,0.259714 -3.90625,0.6875 -1.12,0.44 -2.0925,1.075001 -2.8125,1.875 -0.72,0.839999 -1.2425,1.831251 -1.5625,3.03125 -0.32,1.199999 -0.5,2.551252 -0.5,4.03125 l 0,11.59375 5.03125,0 0,-10.65625 c 0,-1.119999 0.0675,-2.08375 0.1875,-2.84375 0.16,-0.759999 0.3675,-1.36375 0.6875,-1.84375 0.36,-0.439999 0.7525,-0.76875 1.3125,-0.96875 0.43577,-0.124506 0.9814,-0.21163 1.5625,-0.25 0.5811,0.03837 1.12673,0.125494 1.5625,0.25 0.56,0.2 0.9525,0.528751 1.3125,0.96875 0.32,0.48 0.5275,1.083751 0.6875,1.84375 0.12,0.76 0.1875,1.723751 0.1875,2.84375 l 0,10.65625 5.03125,0 0,-11.59375 c 0,-1.479998 -0.18,-2.831251 -0.5,-4.03125 -0.32,-1.199999 -0.8425,-2.191251 -1.5625,-3.03125 -0.72,-0.799999 -1.6925,-1.435 -2.8125,-1.875 -1.08891,-0.427786 -2.40036,-0.674577 -3.90625,-0.6875 z"
       style="fill:#0088cc;fill-opacity:1;stroke:none" />
    <path
       d="m 58.984997,9 -8.08,-0.04 c 0.24,-1.279998 0.72,-2.320001 1.4,-3.16 0.68,-0.839999 1.64,-1.28 2.88,-1.28 1.08,0 2,0.440001 2.68,1.28 0.64,0.839999 1,1.920002 1.12,3.2 m 4.12,9.64 -3.72,-3.4 -0.4,0.6 c -0.4,0.56 -0.88,0.96 -1.48,1.12 -0.64,0.16 -1.32,0.24 -2.08,0.24 -1.28,0.04 -2.32,-0.28 -3.12,-0.92 -0.8,-0.639999 -1.32,-1.880002 -1.56,-3.72 l 13.2,0 c 0.08,-1.439998 0,-2.880001 -0.24,-4.4 -0.28,-1.479998 -0.76,-2.840001 -1.48,-4.04 -0.72,-1.199999 -1.64,-2.160001 -2.8,-2.96 -1.16,-0.759999 -2.56,-1.12 -4.24,-1.16 -1.28,0 -2.52,0.280001 -3.68,0.8 -1.2,0.52 -2.2,1.280001 -3.08,2.24 -0.88,0.959999 -1.6,2.160002 -2.12,3.52 -0.52,1.399999 -0.76,2.960002 -0.76,4.72 0,1.319999 0.16,2.600002 0.56,3.84 0.36,1.279999 0.92,2.400001 1.72,3.36 0.8,0.959999 1.76,1.760001 2.96,2.36 1.2,0.6 2.6,0.88 4.28,0.88 1.84,0 3.36,-0.2 4.56,-0.68 1.2,-0.479999 2.2,-1.120001 3,-1.92 l 0.48,-0.48"
       style="fill:#0088cc;fill-opacity:1;stroke:none" />
    <path
       d="m 85.301877,21.28 4.08,0 c 1.44,-2.959997 2.88,-6.040003 4.32,-9.32 1.44,-3.239996 2.88,-7.080004 4.32,-11.48 l -5.2,0 c -1.12,3.479997 -2.12,6.400003 -3,8.76 -0.88,2.399998 -1.72,4.480002 -2.48,6.24 -0.72,-2.199998 -1.32,-4.480002 -1.88,-6.92 -0.56,-2.359997 -1.16,-5.080003 -1.8,-8.08 l -3.32,0 c -1.36,5.519995 -2.96,10.520005 -4.8,15 -0.64,-1.759998 -1.28,-3.840002 -1.92,-6.24 -0.64,-2.359997 -1.4,-5.280003 -2.24,-8.76 l -5.36,0 c 1.16,4.399996 2.32,8.240004 3.48,11.48 1.16,3.279997 2.44,6.360003 3.84,9.32 l 4.12,0 c 1.6,-4.319995 3.08,-8.440004 4.44,-12.44 0.76,3.839996 1.88,7.960005 3.4,12.44"
       style="fill:#0088cc;fill-opacity:1;stroke:none" />
    <path
       d="m 106.12,28.68 0,-7.88 c 1.2,0.64 2.6,0.96 4.12,0.96 1.36,0 2.64,-0.24 3.8,-0.76 1.16,-0.479999 2.16,-1.200001 3.04,-2.16 0.84,-0.919999 1.52,-2.040001 2,-3.4 0.48,-1.359998 0.76,-2.840001 0.84,-4.52 0,-1.599998 -0.28,-3.080001 -0.8,-4.44 -0.56,-1.319998 -1.28,-2.480001 -2.24,-3.44 -0.96,-0.959999 -2.08,-1.68 -3.36,-2.2 -1.28,-0.519999 -2.72,-0.8 -4.24,-0.8 -1.28,0 -2.56,0.160001 -3.88,0.48 -1.32,0.32 -2.72,1.080001 -4.16,2.28 l -0.2,0.2 0,25.68 5.08,0 m 0.04,-12.68 0,-10.64 c 0.4,-0.2 0.88,-0.36 1.36,-0.52 0.48,-0.12 1.04,-0.2 1.72,-0.2 1.68,0 3,0.560001 3.96,1.64 0.96,1.079999 1.44,2.640002 1.44,4.64 0,1.919998 -0.4,3.440001 -1.12,4.56 -0.76,1.119999 -2,1.64 -3.68,1.64 -1.48,0.04 -2.72,-0.36 -3.68,-1.12"
       style="fill:#0088cc;fill-opacity:1;stroke:none" />
    <path
       d="m 136.56313,5.76 0.04,9.4 c -0.96,0.72 -2.16,1.08 -3.64,1.08 -1.28,0.04 -2.36,-0.480001 -3.2,-1.52 -0.88,-1.039999 -1.32,-2.280001 -1.32,-3.72 0,-1.799998 0.44,-3.280001 1.36,-4.48 0.84,-1.119999 2.04,-1.68 3.68,-1.68 0.64,0 1.28,0.08 1.88,0.2 0.4,0.12 0.8,0.360001 1.2,0.72 m 5.08,13.68 0,-15.52 -0.16,-0.16 c -0.76,-0.879999 -1.52,-1.56 -2.24,-2.04 -0.72,-0.479999 -1.44,-0.88 -2.16,-1.12 -0.72,-0.2 -1.36,-0.36 -1.92,-0.44 -0.6,-0.04 -1.16,-0.04 -1.72,-0.08 -3,0 -5.44,1.000002 -7.36,2.92 -1.92,1.959998 -2.88,4.480003 -2.88,7.52 0,3.279997 0.92,5.800002 2.76,7.52 1.84,1.759999 4.08,2.6 6.68,2.6 1,0 1.96,-0.12 2.92,-0.44 0.36,-0.08 0.68,-0.2 1,-0.32 -0.08,0.72 -0.16,1.320001 -0.28,1.72 -0.2,0.64 -0.48,1.160001 -0.84,1.52 -0.56,0.56 -1.28,0.92 -2.16,1.08 -0.88,0.2 -1.76,0.28 -2.64,0.24 -0.92,-0.04 -1.76,-0.16 -2.56,-0.36 -0.84,-0.16 -1.44,-0.4 -1.84,-0.64 l -2.16,3.88 c 1.44,0.879999 2.8,1.32 4.08,1.36 1.04,0.08 2.16,0.12 3.28,0.12 3.19999,0 5.72,-0.760001 7.52,-2.32 1.76,-1.479998 2.64,-3.840003 2.68,-7.04"
       style="fill:#0088cc;fill-opacity:1;stroke:none" />
    <path
       d="m 24.671026,21.224382 c -3.471523,0 -3.651442,1.295171 -3.723558,4.225731 l 0,9.904794 c 0,4.411666 5.245778,7.993337 11.714198,7.993337 6.46842,0 11.7142,-3.581671 11.7142,-7.993337 l 0,-9.904794 c -0.0721,-2.93056 -0.25204,-4.225731 -3.72356,-4.225731 l -7.99064,0 -7.99064,0 z m 7.99064,6.145081 c 1.83607,0 3.32606,1.441096 3.32606,3.222612 0,1.140415 -0.61309,2.143813 -1.53324,2.717104 l 0,2.969859 -1.79282,0 -1.79282,0 0,-2.969859 c -0.92016,-0.573291 -1.53323,-1.576689 -1.53323,-2.717104 0,-1.781516 1.48998,-3.222612 3.32605,-3.222612 z"
       style="fill:#9ad0eb;fill-opacity:1;fill-rule:evenodd;stroke:none;overflow:visible" />
  </g>
</svg>
